<svg width="20" height="13" viewBox="0 0 20 13" fill="none" xmlns="http://www.w3.org/2000/svg">
<path opacity="0.3" d="M9.97787 12.286H9.00587L8.73587 10H1.96787L1.69787 12.286H0.725866V8.74H1.78787C1.88387 8.608 2.00987 8.374 2.16587 8.038C2.32187 7.69 2.47187 7.21 2.61587 6.598C2.77187 5.974 2.90387 5.206 3.01187 4.294C3.13187 3.37 3.20387 2.272 3.22787 1H8.66387V8.74H9.97787V12.286ZM7.22387 8.74V2.26H4.52387C4.49987 2.764 4.45787 3.316 4.39787 3.916C4.33787 4.504 4.25387 5.098 4.14587 5.698C4.04987 6.286 3.92387 6.844 3.76787 7.372C3.61187 7.9 3.43187 8.356 3.22787 8.74H7.22387ZM11.2561 5.5C11.2561 3.976 11.5921 2.812 12.2641 2.008C12.9481 1.192 13.9261 0.784 15.1981 0.784C15.8701 0.784 16.4521 0.898 16.9441 1.126C17.4481 1.342 17.8621 1.66 18.1861 2.08C18.5101 2.488 18.7501 2.986 18.9061 3.574C19.0621 4.15 19.1401 4.792 19.1401 5.5C19.1401 7.024 18.7981 8.194 18.1141 9.01C17.4421 9.814 16.4701 10.216 15.1981 10.216C14.5261 10.216 13.9381 10.108 13.4341 9.892C12.9421 9.664 12.5341 9.346 12.2101 8.938C11.8861 8.518 11.6461 8.02 11.4901 7.444C11.3341 6.856 11.2561 6.208 11.2561 5.5ZM12.7501 5.5C12.7501 5.956 12.7921 6.394 12.8761 6.814C12.9721 7.234 13.1161 7.6 13.3081 7.912C13.5001 8.224 13.7521 8.476 14.0641 8.668C14.3761 8.86 14.7541 8.956 15.1981 8.956C16.8301 8.968 17.6461 7.816 17.6461 5.5C17.6461 5.032 17.5981 4.588 17.5021 4.168C17.4181 3.748 17.2801 3.382 17.0881 3.07C16.8961 2.758 16.6441 2.512 16.3321 2.332C16.0201 2.14 15.6421 2.044 15.1981 2.044C13.5661 2.032 12.7501 3.184 12.7501 5.5Z" fill="white"/>
</svg>
