<svg width="17" height="11" viewBox="0 0 17 11" fill="none" xmlns="http://www.w3.org/2000/svg">
<path opacity="0.3" d="M0.965406 5.5C0.965406 3.976 1.30141 2.812 1.97341 2.008C2.65741 1.192 3.63541 0.784 4.90741 0.784C5.57941 0.784 6.16141 0.898 6.65341 1.126C7.15741 1.342 7.57141 1.66 7.89541 2.08C8.21941 2.488 8.45941 2.986 8.61541 3.574C8.77141 4.15 8.84941 4.792 8.84941 5.5C8.84941 7.024 8.50741 8.194 7.82341 9.01C7.15141 9.814 6.17941 10.216 4.90741 10.216C4.23541 10.216 3.64741 10.108 3.14341 9.892C2.65141 9.664 2.24341 9.346 1.91941 8.938C1.59541 8.518 1.35541 8.02 1.19941 7.444C1.04341 6.856 0.965406 6.208 0.965406 5.5ZM2.45941 5.5C2.45941 5.956 2.50141 6.394 2.58541 6.814C2.68141 7.234 2.82541 7.6 3.01741 7.912C3.20941 8.224 3.46141 8.476 3.77341 8.668C4.08541 8.86 4.46341 8.956 4.90741 8.956C6.53941 8.968 7.35541 7.816 7.35541 5.5C7.35541 5.032 7.30741 4.588 7.21141 4.168C7.12741 3.748 6.98941 3.382 6.79741 3.07C6.60541 2.758 6.35341 2.512 6.04141 2.332C5.72941 2.14 5.35141 2.044 4.90741 2.044C3.27541 2.032 2.45941 3.184 2.45941 5.5ZM16.5805 2.26H13.7545V10H12.3145V2.26H9.48855V1H16.5805V2.26Z" fill="white"/>
</svg>
