<svg width="83" height="80" viewBox="0 0 83 80" fill="none" xmlns="http://www.w3.org/2000/svg">
<g filter="url(#filter0_d_35931_58)">
<path d="M74.5499 48.2H8.7499C6.4499 48.2 4.6499 50.1 4.6499 52.5V56C4.6499 58.4 6.5499 60.3 8.7499 60.3H9.6499V61.4C9.6499 66.9 13.9499 71.5 19.2499 71.5H63.8499C69.1499 71.5 73.4499 67 73.4499 61.4V60.3H74.3499C76.6499 60.3 78.4499 58.4 78.4499 56V52.5C78.6499 50.2 76.7499 48.2 74.5499 48.2ZM70.6499 61.4C70.6499 65.3 67.6499 68.4 63.9499 68.4H19.2499C15.5499 68.4 12.5499 65.2 12.5499 61.4V60.3H70.6499V61.4ZM75.7499 56C75.7499 56.7 75.1499 57.3 74.5499 57.3H8.6499C7.9499 57.3 7.4499 56.7 7.4499 56V52.5C7.4499 51.8 8.0499 51.2 8.6499 51.2H74.4499C75.1499 51.2 75.6499 51.8 75.6499 52.5C75.7499 52.5 75.7499 56 75.7499 56Z" fill="#83B3D3"/>
<path d="M20.2499 39.9L25.6499 44L30.9499 39.9L36.2499 44L41.5499 39.9L46.9499 44L52.2499 39.9L57.5499 44L62.9499 39.9L68.2499 44L74.4499 39.3L72.7499 36.8L68.2499 40.2L62.9499 36.1L57.5499 40.2L52.2499 36.1L46.9499 40.2L41.5499 36.1L36.2499 40.2L30.9499 36.1L25.6499 40.2L20.2499 36.1L14.9499 40.2L10.4499 36.8L8.7499 39.3L14.9499 44L20.2499 39.9Z" fill="#83B3D3"/>
<path d="M12.6499 33H73.4499C73.4499 32.4 73.5499 31.8 73.5499 31.1C73.5499 30.7 73.5499 30.3 73.5499 29.9C72.8499 14.2 58.8499 1.5 41.6499 1.5C24.3499 1.5 10.3499 14.2 9.6499 30C9.6499 30.4 9.6499 30.8 9.6499 31.2C9.6499 31.8 9.6499 32.5 9.7499 33.1H12.6499V33ZM41.6499 4.5C57.2499 4.5 70.0499 15.8 70.6499 30H12.6499C13.2499 15.9 26.0499 4.5 41.6499 4.5Z" fill="#83B3D3"/>
<path d="M41.6499 18.8C42.6992 18.8 43.5499 17.9046 43.5499 16.8C43.5499 15.6954 42.6992 14.8 41.6499 14.8C40.6006 14.8 39.7499 15.6954 39.7499 16.8C39.7499 17.9046 40.6006 18.8 41.6499 18.8Z" fill="#83B3D3"/>
<path d="M33.8499 13.7C34.8992 13.7 35.7499 12.8046 35.7499 11.7C35.7499 10.5954 34.8992 9.7 33.8499 9.7C32.8006 9.7 31.9499 10.5954 31.9499 11.7C31.9499 12.8046 32.8006 13.7 33.8499 13.7Z" fill="#83B3D3"/>
<path d="M49.3499 13.7C50.3992 13.7 51.2499 12.8046 51.2499 11.7C51.2499 10.5954 50.3992 9.7 49.3499 9.7C48.3006 9.7 47.4499 10.5954 47.4499 11.7C47.4499 12.8046 48.3006 13.7 49.3499 13.7Z" fill="#83B3D3"/>
<path d="M10.1499 60.3V59.8H9.6499H8.7499C6.84137 59.8 5.1499 58.1394 5.1499 56V52.5C5.1499 50.3525 6.74912 48.7 8.7499 48.7H74.5499C76.4587 48.7 78.1262 50.4509 77.9518 52.4567L77.9499 52.4783V52.5V56C77.9499 58.1475 76.3507 59.8 74.3499 59.8H73.4499H72.9499V60.3V61.4C72.9499 66.7473 68.8509 71 63.8499 71H19.2499C14.252 71 10.1499 66.6506 10.1499 61.4V60.3ZM12.5499 59.8H12.0499V60.3V61.4C12.0499 65.4522 15.2504 68.9 19.2499 68.9H63.9499C67.9449 68.9 71.1499 65.5569 71.1499 61.4V60.3V59.8H70.6499H12.5499ZM20.5523 39.5018L20.2471 39.2701L19.944 39.5045L14.9468 43.3702L9.43041 39.1884L10.5678 37.5158L14.6485 40.5989L14.9535 40.8294L15.2558 40.5955L20.2527 36.7299L25.3475 40.5982L25.6527 40.8299L25.9558 40.5955L30.9499 36.7321L35.944 40.5955L36.2499 40.8321L36.5558 40.5955L41.5527 36.7299L46.6475 40.5982L46.9527 40.8299L47.2558 40.5955L52.2499 36.7321L57.244 40.5955L57.5471 40.8299L57.8523 40.5982L62.9471 36.7299L67.944 40.5955L68.2463 40.8294L68.5513 40.5989L72.632 37.5158L73.7694 39.1884L68.253 43.3702L63.2558 39.5045L62.9527 39.2701L62.6475 39.5018L57.5527 43.3701L52.5558 39.5045L52.2499 39.2679L51.944 39.5045L46.9471 43.3701L41.8523 39.5018L41.5471 39.2701L41.244 39.5045L36.2499 43.3679L31.2558 39.5045L30.9499 39.2679L30.644 39.5045L25.6471 43.3701L20.5523 39.5018ZM12.6499 32.5H12.1499V32.6H10.1909C10.1506 32.1505 10.1499 31.6619 10.1499 31.2V31.1977V31.1953V31.193V31.1906V31.1883V31.1859V31.1836V31.1813V31.1789V31.1766V31.1742V31.1719V31.1695V31.1672V31.1648V31.1625V31.1602V31.1578V31.1555V31.1531V31.1508V31.1484V31.1461V31.1438V31.1414V31.1391V31.1367V31.1344V31.132V31.1297V31.1273V31.125V31.1227V31.1203V31.118V31.1156V31.1133V31.1109V31.1086V31.1063V31.1039V31.1016V31.0992V31.0969V31.0945V31.0922V31.0898V31.0875V31.0852V31.0828V31.0805V31.0781V31.0758V31.0734V31.0711V31.0688V31.0664V31.0641V31.0617V31.0594V31.057V31.0547V31.0523V31.05V31.0477V31.0453V31.043V31.0406V31.0383V31.0359V31.0336V31.0312V31.0289V31.0266V31.0242V31.0219V31.0195V31.0172V31.0148V31.0125V31.0102V31.0078V31.0055V31.0031V31.0008V30.9984V30.9961V30.9938V30.9914V30.9891V30.9867V30.9844V30.982V30.9797V30.9773V30.975V30.9727V30.9703V30.968V30.9656V30.9633V30.9609V30.9586V30.9563V30.9539V30.9516V30.9492V30.9469V30.9445V30.9422V30.9398V30.9375V30.9352V30.9328V30.9305V30.9281V30.9258V30.9234V30.9211V30.9188V30.9164V30.9141V30.9117V30.9094V30.907V30.9047V30.9023V30.9V30.8977V30.8953V30.893V30.8906V30.8883V30.8859V30.8836V30.8813V30.8789V30.8766V30.8742V30.8719V30.8695V30.8672V30.8648V30.8625V30.8602V30.8578V30.8555V30.8531V30.8508V30.8484V30.8461V30.8438V30.8414V30.8391V30.8367V30.8344V30.832V30.8297V30.8273V30.825V30.8227V30.8203V30.818V30.8156V30.8133V30.8109V30.8086V30.8063V30.8039V30.8016V30.7992V30.7969V30.7945V30.7922V30.7898V30.7875V30.7852V30.7828V30.7805V30.7781V30.7758V30.7734V30.7711V30.7688V30.7664V30.7641V30.7617V30.7594V30.757V30.7547V30.7523V30.75V30.7477V30.7453V30.743V30.7406V30.7383V30.7359V30.7336V30.7313V30.7289V30.7266V30.7242V30.7219V30.7195V30.7172V30.7148V30.7125V30.7102V30.7078V30.7055V30.7031V30.7008V30.6984V30.6961V30.6938V30.6914V30.6891V30.6867V30.6844V30.682V30.6797V30.6773V30.675V30.6727V30.6703V30.668V30.6656V30.6633V30.6609V30.6586V30.6562V30.6539V30.6516V30.6492V30.6469V30.6445V30.6422V30.6398V30.6375V30.6352V30.6328V30.6305V30.6281V30.6258V30.6234V30.6211V30.6187V30.6164V30.6141V30.6117V30.6094V30.607V30.6047V30.6023V30.6V30.5977V30.5953V30.593V30.5906V30.5883V30.5859V30.5836V30.5813V30.5789V30.5766V30.5742V30.5719V30.5695V30.5672V30.5648V30.5625V30.5602V30.5578V30.5555V30.5531V30.5508V30.5484V30.5461V30.5438V30.5414V30.5391V30.5367V30.5344V30.532V30.5297V30.5273V30.525V30.5227V30.5203V30.518V30.5156V30.5133V30.5109V30.5086V30.5063V30.5039V30.5016V30.4992V30.4969V30.4945V30.4922V30.4898V30.4875V30.4852V30.4828V30.4805V30.4781V30.4758V30.4734V30.4711V30.4688V30.4664V30.4641V30.4617V30.4594V30.457V30.4547V30.4523V30.45V30.4477V30.4453V30.443V30.4406V30.4383V30.4359V30.4336V30.4312V30.4289V30.4266V30.4242V30.4219V30.4195V30.4172V30.4148V30.4125V30.4102V30.4078V30.4055V30.4031V30.4008V30.3984V30.3961V30.3937V30.3914V30.3891V30.3867V30.3844V30.382V30.3797V30.3773V30.375V30.3727V30.3703V30.368V30.3656V30.3633V30.3609V30.3586V30.3563V30.3539V30.3516V30.3492V30.3469V30.3445V30.3422V30.3398V30.3375V30.3352V30.3328V30.3305V30.3281V30.3258V30.3234V30.3211V30.3188V30.3164V30.3141V30.3117V30.3094V30.307V30.3047V30.3023V30.3V30.2977V30.2953V30.293V30.2906V30.2883V30.2859V30.2836V30.2812V30.2789V30.2766V30.2742V30.2719V30.2695V30.2672V30.2648V30.2625V30.2602V30.2578V30.2555V30.2531V30.2508V30.2484V30.2461V30.2437V30.2414V30.2391V30.2367V30.2344V30.232V30.2297V30.2273V30.225V30.2227V30.2203V30.218V30.2156V30.2133V30.2109V30.2086V30.2062V30.2039V30.2016V30.1992V30.1969V30.1945V30.1922V30.1898V30.1875V30.1852V30.1828V30.1805V30.1781V30.1758V30.1734V30.1711V30.1688V30.1664V30.1641V30.1617V30.1594V30.157V30.1547V30.1523V30.15V30.1477V30.1453V30.143V30.1406V30.1383V30.1359V30.1336V30.1313V30.1289V30.1266V30.1242V30.1219V30.1195V30.1172V30.1148V30.1125V30.1102V30.1078V30.1055V30.1031V30.1008V30.0984V30.0961V30.0938V30.0914V30.0891V30.0867V30.0844V30.082V30.0797V30.0773V30.075V30.0727V30.0703V30.068V30.0656V30.0633V30.0609V30.0586V30.0562V30.0539V30.0516V30.0492V30.0469V30.0445V30.0422V30.0398V30.0375V30.0352V30.0328V30.0305V30.0281V30.0258V30.0234V30.0211V30.0187V30.0164V30.0141V30.0117V30.0111C10.8428 14.5132 24.5907 2 41.6499 2C58.6092 2 72.357 14.5132 73.0499 29.9112V29.9117V29.9141V29.9164V29.9187V29.9211V29.9234V29.9258V29.9281V29.9305V29.9328V29.9352V29.9375V29.9398V29.9422V29.9445V29.9469V29.9492V29.9516V29.9539V29.9562V29.9586V29.9609V29.9633V29.9656V29.968V29.9703V29.9727V29.975V29.9773V29.9797V29.982V29.9844V29.9867V29.9891V29.9914V29.9937V29.9961V29.9984V30.0008V30.0031V30.0055V30.0078V30.0102V30.0125V30.0148V30.0172V30.0195V30.0219V30.0242V30.0266V30.0289V30.0312V30.0336V30.0359V30.0383V30.0406V30.043V30.0453V30.0477V30.05V30.0523V30.0547V30.057V30.0594V30.0617V30.0641V30.0664V30.0688V30.0711V30.0734V30.0758V30.0781V30.0805V30.0828V30.0852V30.0875V30.0898V30.0922V30.0945V30.0969V30.0992V30.1016V30.1039V30.1062V30.1086V30.1109V30.1133V30.1156V30.118V30.1203V30.1227V30.125V30.1273V30.1297V30.132V30.1344V30.1367V30.1391V30.1414V30.1437V30.1461V30.1484V30.1508V30.1531V30.1555V30.1578V30.1602V30.1625V30.1648V30.1672V30.1695V30.1719V30.1742V30.1766V30.1789V30.1812V30.1836V30.1859V30.1883V30.1906V30.193V30.1953V30.1977V30.2V30.2023V30.2047V30.207V30.2094V30.2117V30.2141V30.2164V30.2188V30.2211V30.2234V30.2258V30.2281V30.2305V30.2328V30.2352V30.2375V30.2398V30.2422V30.2445V30.2469V30.2492V30.2516V30.2539V30.2563V30.2586V30.2609V30.2633V30.2656V30.268V30.2703V30.2727V30.275V30.2773V30.2797V30.282V30.2844V30.2867V30.2891V30.2914V30.2937V30.2961V30.2984V30.3008V30.3031V30.3055V30.3078V30.3102V30.3125V30.3148V30.3172V30.3195V30.3219V30.3242V30.3266V30.3289V30.3312V30.3336V30.3359V30.3383V30.3406V30.343V30.3453V30.3477V30.35V30.3523V30.3547V30.357V30.3594V30.3617V30.3641V30.3664V30.3687V30.3711V30.3734V30.3758V30.3781V30.3805V30.3828V30.3852V30.3875V30.3898V30.3922V30.3945V30.3969V30.3992V30.4016V30.4039V30.4062V30.4086V30.4109V30.4133V30.4156V30.418V30.4203V30.4227V30.425V30.4273V30.4297V30.432V30.4344V30.4367V30.4391V30.4414V30.4438V30.4461V30.4484V30.4508V30.4531V30.4555V30.4578V30.4602V30.4625V30.4648V30.4672V30.4695V30.4719V30.4742V30.4766V30.4789V30.4813V30.4836V30.4859V30.4883V30.4906V30.493V30.4953V30.4977V30.5V30.5023V30.5047V30.507V30.5094V30.5117V30.5141V30.5164V30.5187V30.5211V30.5234V30.5258V30.5281V30.5305V30.5328V30.5352V30.5375V30.5398V30.5422V30.5445V30.5469V30.5492V30.5516V30.5539V30.5562V30.5586V30.5609V30.5633V30.5656V30.568V30.5703V30.5727V30.575V30.5773V30.5797V30.582V30.5844V30.5867V30.5891V30.5914V30.5938V30.5961V30.5984V30.6008V30.6031V30.6055V30.6078V30.6102V30.6125V30.6148V30.6172V30.6195V30.6219V30.6242V30.6266V30.6289V30.6313V30.6336V30.6359V30.6383V30.6406V30.643V30.6453V30.6477V30.65V30.6523V30.6547V30.657V30.6594V30.6617V30.6641V30.6664V30.6688V30.6711V30.6734V30.6758V30.6781V30.6805V30.6828V30.6852V30.6875V30.6898V30.6922V30.6945V30.6969V30.6992V30.7016V30.7039V30.7063V30.7086V30.7109V30.7133V30.7156V30.718V30.7203V30.7227V30.725V30.7273V30.7297V30.732V30.7344V30.7367V30.7391V30.7414V30.7437V30.7461V30.7484V30.7508V30.7531V30.7555V30.7578V30.7602V30.7625V30.7648V30.7672V30.7695V30.7719V30.7742V30.7766V30.7789V30.7812V30.7836V30.7859V30.7883V30.7906V30.793V30.7953V30.7977V30.8V30.8023V30.8047V30.807V30.8094V30.8117V30.8141V30.8164V30.8188V30.8211V30.8234V30.8258V30.8281V30.8305V30.8328V30.8352V30.8375V30.8398V30.8422V30.8445V30.8469V30.8492V30.8516V30.8539V30.8563V30.8586V30.8609V30.8633V30.8656V30.868V30.8703V30.8727V30.875V30.8773V30.8797V30.882V30.8844V30.8867V30.8891V30.8914V30.8938V30.8961V30.8984V30.9008V30.9031V30.9055V30.9078V30.9102V30.9125V30.9148V30.9172V30.9195V30.9219V30.9242V30.9266V30.9289V30.9312V30.9336V30.9359V30.9383V30.9406V30.943V30.9453V30.9477V30.95V30.9523V30.9547V30.957V30.9594V30.9617V30.9641V30.9664V30.9688V30.9711V30.9734V30.9758V30.9781V30.9805V30.9828V30.9852V30.9875V30.9898V30.9922V30.9945V30.9969V30.9992V31.0016V31.0039V31.0063V31.0086V31.0109V31.0133V31.0156V31.018V31.0203V31.0227V31.025V31.0273V31.0297V31.032V31.0344V31.0367V31.0391V31.0414V31.0438V31.0461V31.0484V31.0508V31.0531V31.0555V31.0578V31.0602V31.0625V31.0648V31.0672V31.0695V31.0719V31.0742V31.0766V31.0789V31.0813V31.0836V31.0859V31.0883V31.0906V31.093V31.0953V31.0977V31.1C73.0499 31.4277 73.0265 31.7345 73.0015 32.0476L72.9981 32.0903C72.9873 32.2247 72.9763 32.3615 72.9676 32.5H12.6499ZM70.6499 30.5H71.1715L71.1495 29.9789C70.5365 15.4729 57.4778 4 41.6499 4C25.8206 4 12.7633 15.5742 12.1504 29.9787L12.1282 30.5H12.6499H70.6499ZM74.5499 57.8C75.0145 57.8 75.4391 57.5718 75.7379 57.2564C76.0397 56.9378 76.2499 56.4933 76.2499 56V55.9998V55.9993V55.9973V55.9897L76.2499 55.9602L76.2497 55.8486C76.2495 55.7525 76.2491 55.6153 76.2483 55.4507C76.2468 55.1217 76.2436 54.6825 76.2374 54.2429C76.2311 53.8043 76.2216 53.361 76.2073 53.0255C76.2001 52.8593 76.1915 52.711 76.1804 52.6006C76.1752 52.5483 76.1679 52.4883 76.1564 52.4345C76.1544 52.4254 76.1515 52.4119 76.147 52.3956C76.0985 51.5125 75.438 50.7 74.4499 50.7H8.6499C8.18526 50.7 7.76073 50.9282 7.46193 51.2436C7.16012 51.5622 6.9499 52.0067 6.9499 52.5V56C6.9499 56.9224 7.62291 57.8 8.6499 57.8H74.5499ZM43.0499 16.8C43.0499 17.6529 42.3992 18.3 41.6499 18.3C40.9006 18.3 40.2499 17.6529 40.2499 16.8C40.2499 15.9471 40.9006 15.3 41.6499 15.3C42.3992 15.3 43.0499 15.9471 43.0499 16.8ZM35.2499 11.7C35.2499 12.5529 34.5992 13.2 33.8499 13.2C33.1006 13.2 32.4499 12.5529 32.4499 11.7C32.4499 10.8471 33.1006 10.2 33.8499 10.2C34.5992 10.2 35.2499 10.8471 35.2499 11.7ZM50.7499 11.7C50.7499 12.5529 50.0992 13.2 49.3499 13.2C48.6006 13.2 47.9499 12.5529 47.9499 11.7C47.9499 10.8471 48.6006 10.2 49.3499 10.2C50.0992 10.2 50.7499 10.8471 50.7499 11.7Z" stroke="black"/>
</g>
<defs>
<filter id="filter0_d_35931_58" x="0.649902" y="1.5" width="81.8145" height="78" filterUnits="userSpaceOnUse" color-interpolation-filters="sRGB">
<feFlood flood-opacity="0" result="BackgroundImageFix"/>
<feColorMatrix in="SourceAlpha" type="matrix" values="0 0 0 0 0 0 0 0 0 0 0 0 0 0 0 0 0 0 127 0" result="hardAlpha"/>
<feOffset dy="4"/>
<feGaussianBlur stdDeviation="2"/>
<feComposite in2="hardAlpha" operator="out"/>
<feColorMatrix type="matrix" values="0 0 0 0 0 0 0 0 0 0 0 0 0 0 0 0 0 0 0.25 0"/>
<feBlend mode="normal" in2="BackgroundImageFix" result="effect1_dropShadow_35931_58"/>
<feBlend mode="normal" in="SourceGraphic" in2="effect1_dropShadow_35931_58" result="shape"/>
</filter>
</defs>
</svg>
